<?xml version="1.0" standalone="no"?>
<!DOCTYPE svg PUBLIC "-//W3C//DTD SVG 20010904//EN"
 "http://www.w3.org/TR/2001/REC-SVG-20010904/DTD/svg10.dtd">
<svg version="1.0" xmlns="http://www.w3.org/2000/svg"
 width="1400.000000pt" height="731.000000pt" viewBox="0 0 1400.000000 731.000000"
 preserveAspectRatio="xMidYMid meet">

<g transform="translate(0.000000,731.000000) scale(0.100000,-0.100000)"
fill="#FFFF" stroke="none">
<path d="M7105 5844 c-183 -14 -317 -27 -427 -44 -659 -100 -1213 -351 -1465
-665 -189 -236 -212 -468 -68 -685 25 -38 67 -88 93 -111 26 -23 38 -39 27
-34 -11 4 -42 16 -69 27 -181 71 -497 76 -784 12 -425 -95 -828 -326 -1154
-662 -266 -274 -434 -559 -520 -882 -26 -99 -31 -137 -35 -280 -5 -145 -3
-176 16 -255 87 -365 394 -633 822 -716 493 -95 1080 57 1679 436 388 246 867
666 1287 1129 l80 88 189 -26 c104 -14 222 -29 262 -32 39 -4 72 -8 72 -10 0
-2 -18 -50 -39 -106 -98 -258 -181 -547 -216 -753 -35 -202 -21 -405 36 -516
51 -100 161 -167 282 -172 56 -2 62 0 76 25 13 23 14 40 2 135 -48 388 -6 753
146 1271 30 102 39 123 57 126 12 2 104 12 205 21 101 9 190 19 196 22 8 2 37
-41 75 -109 148 -268 292 -494 431 -677 425 -563 904 -843 1542 -902 182 -17
463 -7 601 21 447 89 773 320 801 568 19 172 -92 360 -261 443 -61 30 -78 34
-149 34 -69 0 -86 -4 -127 -28 -65 -38 -93 -80 -93 -140 0 -43 4 -52 37 -82
42 -39 91 -55 168 -55 62 0 86 11 77 34 -16 42 34 76 113 76 58 0 93 -15 131
-57 52 -55 64 -91 64 -188 0 -82 -3 -97 -33 -157 -58 -118 -197 -227 -363
-283 -169 -58 -399 -74 -579 -41 -708 129 -1281 468 -1829 1081 -160 179 -401
481 -390 488 2 2 56 13 119 26 495 100 959 318 1233 580 179 172 290 351 343
556 22 88 25 116 22 225 -4 108 -9 137 -35 213 -142 405 -614 720 -1353 901
-176 43 -450 91 -636 111 -134 15 -555 27 -659 19z m290 -54 c366 -20 720 -80
1027 -176 103 -32 338 -124 338 -133 0 -3 -21 -14 -47 -23 -74 -26 -215 -115
-332 -208 -127 -101 -614 -585 -951 -945 -134 -143 -248 -259 -254 -258 -6 1
-50 18 -98 38 -140 58 -227 77 -378 82 -118 4 -151 1 -265 -21 -187 -38 -310
-49 -480 -43 -125 4 -170 10 -268 36 -226 59 -327 111 -441 227 -153 155 -208
337 -155 510 147 483 934 864 1887 913 219 12 212 12 417 1z m1443 -345 c1 -1
-33 -22 -75 -47 -95 -56 -182 -120 -331 -245 -283 -239 -598 -641 -877 -1118
-48 -82 -91 -154 -95 -159 -4 -4 -32 10 -62 31 -29 21 -70 49 -90 62 -21 12
-38 24 -38 26 0 10 515 620 638 757 228 251 445 454 607 569 76 54 120 79 203
115 72 31 90 33 120 9z m195 -117 c115 -79 269 -230 332 -326 169 -259 178
-536 28 -841 -165 -335 -515 -610 -1003 -788 -105 -38 -325 -103 -350 -103 -9
0 -54 48 -101 107 -46 60 -131 156 -188 216 l-104 107 33 73 c254 558 584
1047 895 1328 129 117 345 289 363 289 2 0 45 -28 95 -62z m-3929 -997 c267
-71 444 -241 512 -491 25 -91 26 -338 1 -430 -62 -233 -231 -390 -452 -422
-97 -14 -156 -6 -226 30 -73 37 -94 69 -94 142 0 49 4 63 25 85 19 20 32 25
53 22 33 -4 47 19 47 82 0 141 -119 223 -219 151 -68 -47 -81 -199 -29 -313
37 -79 117 -160 196 -199 164 -81 412 -27 561 123 71 71 131 183 161 304 27
105 29 306 5 415 -25 114 -92 245 -163 318 -33 34 -59 62 -57 62 1 0 33 -14
71 -31 38 -17 121 -45 184 -61 99 -26 138 -31 285 -35 95 -3 203 0 245 5 41 6
76 10 78 8 1 -2 -21 -16 -50 -31 -120 -62 -218 -148 -259 -226 -19 -36 -24
-60 -24 -129 0 -110 23 -160 121 -256 84 -83 159 -131 272 -175 45 -17 82 -34
82 -38 0 -4 -21 -27 -47 -51 -27 -25 -95 -89 -152 -143 -411 -389 -907 -731
-1350 -931 -405 -184 -866 -290 -1118 -258 -269 35 -498 139 -663 302 -132
130 -176 234 -187 441 -20 389 184 814 568 1184 283 273 621 459 980 539 155
34 158 34 374 31 157 -2 204 -6 269 -24z m1787 -205 c52 -13 134 -42 183 -65
l90 -41 -36 -38 c-19 -20 -160 -171 -312 -334 -153 -164 -284 -298 -292 -298
-26 0 -96 40 -171 97 -206 156 -229 379 -56 549 60 58 162 114 253 138 88 23
232 20 341 -8z m423 -205 c33 -27 73 -62 89 -78 l27 -29 -52 -100 c-29 -54
-93 -189 -144 -299 l-91 -200 -39 3 c-134 10 -424 66 -424 82 0 4 66 84 146
176 81 93 208 242 283 331 75 90 138 163 140 163 2 0 31 -22 65 -49z m383
-443 c44 -68 96 -151 116 -185 l36 -62 -27 -5 c-98 -21 -362 -34 -362 -18 0
29 139 392 150 392 4 0 44 -55 87 -122z"/>
</g>
</svg>
